<svg width="545" height="259" viewBox="0 0 545 259" fill="none" xmlns="http://www.w3.org/2000/svg">
<path d="M17.952 84.952V111.928H47.04C48.32 111.928 49.12 111.736 49.44 111.352C49.824 110.968 50.016 110.168 50.016 108.952V87.928C50.016 86.648 49.824 85.848 49.44 85.528C49.12 85.144 48.32 84.952 47.04 84.952H17.952ZM17.952 117.592V139H9.6V79.288H50.688C55.744 79.288 58.272 81.816 58.272 86.872V110.008C58.272 115.064 55.744 117.592 50.688 117.592H45.024L58.464 139H49.824L36.48 117.592H17.952Z" fill="white"/>
<path d="M201.856 139H193.6V74.776H201.856V139ZM220.109 139V74.776H228.365V139H220.109ZM267.341 92.44L241.805 115.48L267.341 139H256.397L231.245 115.48L256.397 92.44H267.341ZM312.993 130.36V101.08C312.993 99.864 312.801 99.064 312.417 98.68C312.097 98.296 311.297 98.104 310.017 98.104H288.129C286.849 98.104 286.017 98.296 285.633 98.68C285.313 99.064 285.153 99.864 285.153 101.08V130.36C285.153 131.64 285.313 132.472 285.633 132.856C286.017 133.176 286.849 133.336 288.129 133.336H310.017C311.297 133.336 312.097 133.176 312.417 132.856C312.801 132.472 312.993 131.64 312.993 130.36ZM284.577 92.44H313.569C318.625 92.44 321.153 94.968 321.153 100.024V131.416C321.153 136.472 318.625 139 313.569 139H284.577C279.521 139 276.993 136.472 276.993 131.416V100.024C276.993 94.968 279.521 92.44 284.577 92.44Z" fill="white"/>
<path d="M167.375 93.545V179.385C167.375 189.128 162.503 194 152.76 194H92.265C82.5217 194 77.65 189.128 77.65 179.385V93.545C77.65 83.8017 82.5217 78.93 92.265 78.93H152.76C162.503 78.93 167.375 83.8017 167.375 93.545ZM151.465 177.35V95.58C151.465 93.1133 151.095 91.5717 150.355 90.955C149.738 90.215 148.197 89.845 145.73 89.845H99.48C97.0133 89.845 95.41 90.215 94.67 90.955C94.0533 91.5717 93.745 93.1133 93.745 95.58V177.35C93.745 179.817 94.0533 181.42 94.67 182.16C95.41 182.777 97.0133 183.085 99.48 183.085H145.73C148.197 183.085 149.738 182.777 150.355 182.16C151.095 181.42 151.465 179.817 151.465 177.35ZM201.888 194H193.632V129.776H201.888V194ZM227.437 167.312H255.853V156.08C255.853 154.864 255.661 154.064 255.277 153.68C254.893 153.296 254.093 153.104 252.877 153.104H230.413C229.197 153.104 228.397 153.296 228.013 153.68C227.629 154.064 227.437 154.864 227.437 156.08V167.312ZM226.765 147.44H256.429C261.485 147.44 264.013 149.968 264.013 155.024V172.976H227.437V185.36C227.437 186.64 227.629 187.472 228.013 187.856C228.397 188.176 229.197 188.336 230.413 188.336H252.589C253.869 188.336 254.669 188.176 254.989 187.856C255.373 187.472 255.565 186.64 255.565 185.36V180.848H263.725V186.416C263.725 191.472 261.197 194 256.141 194H226.765C221.709 194 219.181 191.472 219.181 186.416V155.024C219.181 149.968 221.709 147.44 226.765 147.44ZM305.023 170.576L325.279 194H315.871L299.935 175.664L283.423 194H274.015L295.135 170.768L275.167 147.44H284.863L300.319 165.872L316.159 147.44H325.663L305.023 170.576ZM347.413 188.336H368.533C369.685 188.336 370.517 188.08 371.029 187.568C371.541 187.056 371.797 186.192 371.797 184.976V156.464C371.797 155.248 371.541 154.384 371.029 153.872C370.517 153.36 369.685 153.104 368.533 153.104H347.413C346.197 153.104 345.397 153.296 345.013 153.68C344.629 154.064 344.437 154.864 344.437 156.08V185.36C344.437 186.64 344.629 187.472 345.013 187.856C345.397 188.176 346.197 188.336 347.413 188.336ZM371.797 147.44H380.053V194H371.797V190.928C370.965 192.976 369.205 194 366.517 194H343.765C338.709 194 336.181 191.472 336.181 186.416V155.024C336.181 149.968 338.709 147.44 343.765 147.44H366.517C369.205 147.44 370.965 148.464 371.797 150.512V147.44ZM410.96 147.44H433.616C438.672 147.44 441.2 149.968 441.2 155.024V194H432.944V156.08C432.944 154.864 432.752 154.064 432.368 153.68C432.048 153.296 431.248 153.104 429.968 153.104H408.944C407.792 153.104 406.96 153.36 406.448 153.872C405.936 154.384 405.68 155.248 405.68 156.464V159.632H405.584V194H397.328V147.44H405.584V150.8C406.288 148.56 408.08 147.44 410.96 147.44ZM467.788 188.336H488.908C490.06 188.336 490.892 188.08 491.404 187.568C491.916 187.056 492.172 186.192 492.172 184.976V156.464C492.172 155.248 491.916 154.384 491.404 153.872C490.892 153.36 490.06 153.104 488.908 153.104H467.788C466.572 153.104 465.772 153.296 465.388 153.68C465.004 154.064 464.812 154.864 464.812 156.08V185.36C464.812 186.64 465.004 187.472 465.388 187.856C465.772 188.176 466.572 188.336 467.788 188.336ZM492.172 129.776H500.428V194H492.172V190.928C491.34 192.976 489.58 194 486.892 194H464.14C459.084 194 456.556 191.472 456.556 186.416V155.024C456.556 149.968 459.084 147.44 464.14 147.44H486.892C489.58 147.44 491.34 148.464 492.172 150.512V129.776ZM533.447 147.44H543.431V153.296H532.199C528.039 153.296 525.959 155.696 525.959 160.496V194H517.703V147.44H525.959V153.296C526.983 149.392 529.479 147.44 533.447 147.44Z" fill="white"/>
</svg>
